PathFileType	4	(X/Y/Z)	RBDS001\RBDS001runT35.trc
DataRate	CameraRate	NumFrames	NumMarkers	Units	OrigDataRate	OrigDataStartFrame	OrigNumFrames
150.000000	150.000000	4	32	mm	150.000000	1125	4500
Frame#	Time	L.ASIS			L.Heel.Bottom			L.Heel.Lateral			L.Heel.Top			L.Iliac.Crest			L.MT1			L.MT5			L.PSIS			L.Shank.Bottom.Lateral			L.Shank.Bottom.Medial			L.Shank.Top.Lateral			L.Shank.Top.Medial			L.Thigh.Bottom.Lateral			L.Thigh.Bottom.Medial			L.Thigh.Top.Lateral			L.Thigh.Top.Medial			R.ASIS			R.Heel.Bottom			R.Heel.Lateral			R.Heel.Top			R.Iliac.Crest			R.MT1			R.MT5			R.PSIS			R.Shank.Bottom.Lateral			R.Shank.Bottom.Medial			R.Shank.Top.Lateral			R.Shank.Top.Medial			R.Thigh.Bottom.Lateral			R.Thigh.Bottom.Medial			R.Thigh.Top.Lateral			R.Thigh.Top.Medial			
		X1	Y1	Z1	X2	Y2	Z2	X3	Y3	Z3	X4	Y4	Z4	X5	Y5	Z5	X6	Y6	Z6	X7	Y7	Z7	X8	Y8	Z8	X9	Y9	Z9	X10	Y10	Z10	X11	Y11	Z11	X12	Y12	Z12	X13	Y13	Z13	X14	Y14	Z14	X15	Y15	Z15	X16	Y16	Z16	X17	Y17	Z17	X18	Y18	Z18	X19	Y19	Z19	X20	Y20	Z20	X21	Y21	Z21	X22	Y22	Z22	X23	Y23	Z23	X24	Y24	Z24	X25	Y25	Z25	X26	Y26	Z26	X27	Y27	Z27	X28	Y28	Z28	X29	Y29	Z29	X30	Y30	Z30	X31	Y31	Z31	X32	Y32	Z32	

1126	7.500000000000001	2336.659620481446	1054.227992598004	921.7751344659165	2203.238966990441	195.7748486688192	982.5302707434183	2230.628394971253	198.1332588207726	938.7564459919352	2230.296908023502	235.2197218231375	981.0405065484553	2280.151938213333	1127.262148739259	885.331519460816	2416.825637367863	121.98610927372	997.0358573352969	2370.85165933226	126.3787651559677	897.4537585697997	2171.798770538013	1100.373521675738	986.2307876546852	2332.716995935211	303.1895655582091	915.6585355041357	2295.59586274016	320.1400671534649	947.2430832020037	2358.576839461471	378.4874025202629	900.2342438099007	2322.733097004607	399.3398137142679	934.1711193541391	2427.118174751364	703.6215198925323	870.6593227950677	2383.571314614282	671.8316938716025	920.3373558874284	2348.989958258465	780.4598084178309	856.5261416147563	2308.795654732295	752.6180617973215	905.3414215320828	2334.366168040254	1025.964919012717	1127.615666894946	1713.074017309703	209.7549780875342	1034.700467255977	1740.573790035679	191.1990553057618	1078.362881777829	1755.456861223824	232.1653965591616	1042.282160694338	2294.489417963762	1105.839535545419	1155.059256390486	1842.455799648129	65.03704691997646	1089.298477320696	1873.23922792248	64.82075964445229	983.6272365519281	2178.505772608176	1098.286634363341	1062.513493752303	1857.212540332642	267.552461226239	1099.288222089734	1826.527637514419	294.7692468016826	1063.177328242563	1896.491742693286	336.6720312802048	1117.033990039526	1865.943781799231	362.9302591709192	1080.718536644938	2111.563841194525	645.8041444531804	1146.691842128469	2056.924064683072	666.2179962714224	1100.379131626528	2132.239363718957	753.2071264827439	1164.826375434285	2081.72790732092	771.8275603058822	1119.054116797738	
1127	7.506666666666667	2338.079734734184	1057.245151774758	921.1733442101795	2229.902760696034	176.0572303384592	984.9607265911408	2256.799348337403	180.0915754592819	941.0392087092489	2253.950744690059	217.3213131396969	983.1256589104349	2281.391251436763	1130.506362750782	885.2587564995065	2448.201404494058	118.1943023724824	998.7541910657055	2401.611446238095	118.6325376141502	899.3234279752714	2174.157166238691	1103.989233835165	987.1946389602306	2350.900443137342	292.6668552710695	917.3462381384898	2313.172916860705	307.1438571396345	949.3249645778791	2371.546413193965	369.433122879728	901.6634252095201	2334.833046440438	387.9376766974605	936.0418918742532	2424.903060129539	704.1457214861626	871.9022074452356	2380.432087611705	672.3332524075456	920.732326060073	2347.916489185466	782.1523610746809	857.7914716023082	2306.998986395836	754.4223005377754	905.9643909333014	2337.378095607682	1028.677755334493	1126.921927896125	1706.202668962009	226.3563446260673	1035.687118544472	1731.754434677736	205.3872742042969	1079.506403867524	1749.99444254161	245.7271860103219	1044.161387431956	2298.552231881668	1109.258471524697	1154.799013774914	1825.052139074736	70.67585329088499	1090.520851907546	1857.504901316859	70.58286701116252	985.3909691993981	2181.64857429266	1102.154900056227	1063.496442765347	1848.782334716153	276.095707106244	1101.214902924316	1818.654558285724	303.10578038418	1064.453968477262	1888.459992525618	345.1743777995723	1118.422484630722	1858.35711234844	371.2208546825779	1081.587392294631	2108.071459038892	652.1515245212991	1146.73476491779	2053.809602205021	673.6138945444525	1100.511616887236	2130.883127863074	759.1018866550967	1164.942942443141	2080.809003703068	778.6897870609664	1119.139300063646	
1128	7.513333333333334	2339.467080429103	1059.7586579428	920.6738650796876	2257.057259663943	157.5067327249056	987.6920747117816	2283.278330074944	163.121321921724	943.5577332958003	2278.025259115364	200.3494058144855	985.4455082072502	2282.715774572872	1133.205336768715	885.1979886026352	2478.886054362585	115.5015532481286	1000.273031495565	2431.818486642643	111.9614672025978	901.1166430193261	2176.311001009602	1107.143140697892	988.010044517511	2368.898821460006	282.5340327297557	919.0803726636664	2330.812336247677	294.5167242093832	951.5467238497191	2384.241106693678	360.3884473032908	903.1393700439273	2346.89403448749	376.5092931051914	938.0406912335867	2421.910127740767	703.6111713567319	873.0472730112672	2376.513544521233	671.9922365867458	921.1329462252662	2346.332364243232	782.9897435267731	858.9317248234241	2304.67133295743	755.5355398627132	906.5128203260394	2340.082027991419	1031.247978167602	1126.332676417244	1699.811915076524	242.7027418816697	1036.973075143868	1723.512820437518	219.5550421703142	1080.865153518517	1744.777883522447	259.1736749218958	1046.1742722998	2302.166007391369	1112.500587248701	1154.568782339849	1808.482124604084	77.24618610134277	1091.717610794052	1842.326725106548	77.34242768577913	987.140336253953	2184.475137513037	1105.646129479388	1064.34811278448	1840.978667134324	284.6156970221906	1103.045336295601	1811.387323605482	311.6315110904433	1065.866832347151	1881.353616047234	353.4459262226412	1119.790355543783	1851.675005199445	379.4949933780876	1082.621935896962	2105.800042019672	657.6630250196447	1146.75573693619	2051.786730039062	680.0044715026371	1100.73056542698	2130.384244457301	764.1803412444083	1165.101603520176	2080.567995599033	784.5884339576809	1119.438075254269	
1129	7.52	2340.842571800655	1061.790610112239	920.3334441662952	2284.372227917657	140.3904422639949	990.7926940752867	2309.743744208215	147.4344050272217	946.3690390869527	2302.2468447074	184.5584150944949	988.0424219295406	2284.165768441923	1135.377150300905	885.1659488177042	2508.599302262679	113.8985984742176	1001.569018720829	2461.13579763692	106.3521613060566	902.8454367717983	2178.259738805394	1109.82312801613	988.6371551774378	2386.547692361651	272.9275034375656	920.8665358577161	2348.338042981306	282.4251003517934	953.9033017668039	2396.551478041243	351.4859393693619	904.6631944557995	2358.796952386449	365.2157278949015	940.1521831237031	2418.186376996296	702.0742502274265	874.0784325984142	2371.930334703086	670.9160082776804	921.6099537415012	2344.263345794486	782.9843166428516	859.9216837812559	2301.892009572952	756.0138026185152	907.033897135036	2342.463613578323	1033.670902795654	1125.890855841808	1693.613898832337	258.6238864288554	1038.643057997954	1715.690927173084	233.5524964699405	1082.48756235789	1739.531484715141	272.4164824782599	1048.330791123214	2305.262344822302	1115.548554378948	1154.374052728641	1792.84669720318	84.73823805494509	1092.838655696498	1827.637575215923	85.07588475579423	988.7528239645226	2186.946899879734	1108.720148590842	1065.0336692232	1833.689734016491	293.1360396508955	1104.73975565595	1804.607139237308	320.3970447719395	1067.393999139262	1875.079133699358	361.4785899223223	1121.106997348014	1845.808217239725	387.7701233319602	1083.806090669718	2104.727458357333	662.2313916277639	1146.775246557119	2050.825944062974	685.2968514877218	1101.046140885229	2130.722460312337	768.3534835928037	1165.332107765545	2080.970431743975	789.4482590192488	1119.980000831867	
